<svg width="20" height="28" viewBox="0 0 20 28" fill="none" xmlns="http://www.w3.org/2000/svg">
<path d="M6.14286 27H13.8571M6.14286 1H13.8571M1 7.5C1 6.81044 1.27092 6.14912 1.75315 5.66152C2.23539 5.17393 2.88944 4.9 3.57143 4.9H16.4286C17.1106 4.9 17.7646 5.17393 18.2468 5.66152C18.7291 6.14912 19 6.81044 19 7.5V20.5C19 21.1896 18.7291 21.8509 18.2468 22.3385C17.7646 22.8261 17.1106 23.1 16.4286 23.1H3.57143C2.88944 23.1 2.23539 22.8261 1.75315 22.3385C1.27092 21.8509 1 21.1896 1 20.5V7.5Z" stroke="#6D6D6D" stroke-width="2" stroke-linecap="round" stroke-linejoin="round"/>
</svg>
