<svg width="28" height="28" viewBox="0 0 28 28" fill="none" xmlns="http://www.w3.org/2000/svg">
<path d="M22.45 9.45V22.45M5.55 22.45V27H22.45V22.45M5.55 22.45H1V9.45C1 7.5 2.3 5.225 4.25 3.6C6.2 1.975 10.1 1 10.1 1H17.9C17.9 1 21.8 1.975 23.75 3.6C25.7 5.225 27 7.5 27 9.45V22.45H22.45M5.55 22.45V9.45" stroke="#6D6D6D" stroke-width="1.5" stroke-linecap="round" stroke-linejoin="round"/>
<path d="M17.9001 1C17.9001 2.03434 17.4892 3.02632 16.7578 3.75772C16.0264 4.48911 15.0344 4.9 14.0001 4.9C12.9658 4.9 11.9738 4.48911 11.2424 3.75772C10.511 3.02632 10.1001 2.03434 10.1001 1" stroke="#6D6D6D" stroke-width="1.5" stroke-linecap="round" stroke-linejoin="round"/>
</svg>
