<svg width="22" height="22" viewBox="0 0 22 22" fill="none" xmlns="http://www.w3.org/2000/svg">
<path d="M17.5 7.5V17.5M4.5 17.5V21H17.5V17.5M4.5 17.5H1V7.5C1 6 2 4.25 3.5 3C5 1.75 8 1 8 1H14C14 1 17 1.75 18.5 3C20 4.25 21 6 21 7.5V17.5H17.5M4.5 17.5V7.5" stroke="white" stroke-width="2" stroke-linecap="round" stroke-linejoin="round"/>
<path d="M14 1C14 1.79565 13.6839 2.55871 13.1213 3.12132C12.5587 3.68393 11.7956 4 11 4C10.2044 4 9.44129 3.68393 8.87868 3.12132C8.31607 2.55871 8 1.79565 8 1" stroke="white" stroke-width="2" stroke-linecap="round" stroke-linejoin="round"/>
</svg>
