<svg width="75" height="75" viewBox="0 0 75 75" fill="none" xmlns="http://www.w3.org/2000/svg">
<path fill-rule="evenodd" clip-rule="evenodd" d="M0 0H74.89V74.9228H0V0Z" fill="#FCAB4D"/>
<path fill-rule="evenodd" clip-rule="evenodd" d="M24.6691 74.923V54.1802H50.4503V74.923H24.6691Z" fill="#624555"/>
<path fill-rule="evenodd" clip-rule="evenodd" d="M57.4846 30.6234H17.3732V20.841C17.3732 11.1566 25.2908 3.23901 34.9751 3.23901H39.9154C49.5998 3.23901 57.5174 11.1566 57.5174 20.841V30.6234H57.4846Z" fill="#231F20"/>
<path fill-rule="evenodd" clip-rule="evenodd" d="M37.4287 17.0784C27.8425 17.0784 19.9904 24.9305 19.9904 34.5167V47.3419C19.9904 56.9281 27.8425 64.7803 37.4287 64.7803C47.0149 64.7803 54.867 56.9281 54.867 47.3419V34.5167C54.867 24.8978 47.0149 17.0784 37.4287 17.0784Z" fill="#624555"/>
<path fill-rule="evenodd" clip-rule="evenodd" d="M28.3661 50.5156V64.2569C28.3661 69.1973 32.3903 73.2215 37.3307 73.2215H37.5597C42.5 73.2215 46.5242 69.1973 46.5242 64.2569V50.5156C45.4773 54.5399 41.8456 57.4844 37.4942 57.5171C33.1101 57.5499 29.413 54.5726 28.3661 50.5156Z" fill="#231F20"/>
<path fill-rule="evenodd" clip-rule="evenodd" d="M46.5242 50.5156C45.4773 54.5071 41.8456 57.4844 37.4942 57.5171C33.1101 57.5499 29.4458 54.5726 28.3661 50.5156H30.6236C31.6051 53.362 34.3206 55.3905 37.4942 55.3578C40.6351 55.3578 43.3179 53.3293 44.2994 50.5156H46.5242Z" fill="#F05B72"/>
<path fill-rule="evenodd" clip-rule="evenodd" d="M30.1653 28.7915H18.3544V36.0875C18.3544 40.1117 21.6261 43.3835 25.6503 43.3835H30.1653C34.1896 43.3835 37.4613 40.1117 37.4613 36.0875C37.4286 32.0633 34.1568 28.7915 30.1653 28.7915Z" fill="white"/>
<path fill-rule="evenodd" clip-rule="evenodd" d="M21.1681 31.6047H30.1654C32.6192 31.6047 34.6149 33.6332 34.6149 36.087C34.6149 38.5408 32.5864 40.5693 30.1654 40.5693H25.6504C23.1966 40.5693 21.2008 38.5408 21.2008 36.087V31.6047H21.1681Z" fill="#792016"/>
<path fill-rule="evenodd" clip-rule="evenodd" d="M11.5493 28.7915H26.4357V31.6052H11.5493V28.7915Z" fill="white"/>
<path fill-rule="evenodd" clip-rule="evenodd" d="M10.9604 28.7915H11.811V31.6052H10.9604C8.50658 31.6052 6.51082 33.6337 6.51082 36.0548C6.51082 38.5086 8.5393 40.5371 10.9604 40.5371H11.811C12.5963 40.5371 13.2179 41.1587 13.2179 41.9439C13.2179 42.7291 12.5963 43.3507 11.811 43.3507H10.9604C6.93615 43.3507 3.66443 40.079 3.66443 36.0548C3.69715 32.0632 6.96887 28.7915 10.9604 28.7915Z" fill="white"/>
<path fill-rule="evenodd" clip-rule="evenodd" d="M44.7244 28.7915H56.5354V36.0875C56.5354 40.1117 53.2637 43.3835 49.2394 43.3835H44.7244C40.7002 43.3835 37.4285 40.1117 37.4285 36.0875C37.4285 32.0633 40.7329 28.7915 44.7244 28.7915Z" fill="white"/>
<path fill-rule="evenodd" clip-rule="evenodd" d="M53.7221 31.6047H44.7248C42.271 31.6047 40.2753 33.6332 40.2753 36.087C40.2753 38.5408 42.3037 40.5693 44.7248 40.5693H49.2398C51.6936 40.5693 53.7221 38.5408 53.7221 36.087V31.6047Z" fill="#792016"/>
<path fill-rule="evenodd" clip-rule="evenodd" d="M63.341 28.7915H48.4546V31.6052H63.341V28.7915Z" fill="white"/>
<path fill-rule="evenodd" clip-rule="evenodd" d="M63.8969 28.7915H63.0463V31.6052H63.8969C66.3507 31.6052 68.3465 33.6337 68.3465 36.0548C68.3465 38.5086 66.318 40.5371 63.8969 40.5371H63.0463C62.261 40.5371 61.6394 41.1587 61.6394 41.9439C61.6394 42.7291 62.261 43.3507 63.0463 43.3507H63.8969C67.9211 43.3507 71.1929 40.079 71.1929 36.0548C71.1929 32.0632 67.9211 28.7915 63.8969 28.7915Z" fill="white"/>
</svg>
