<svg width="16" height="20" viewBox="0 0 16 20" fill="none" xmlns="http://www.w3.org/2000/svg">
<circle cx="7.57894" cy="5.27803" r="4.77803" fill="#FF2929"/>
<path fill-rule="evenodd" clip-rule="evenodd" d="M1.61815e-05 16.7013C-0.00126761 16.3654 0.0738532 16.0336 0.219696 15.7311C0.677362 14.8157 1.96798 14.3306 3.03892 14.1109C3.81128 13.9461 4.59431 13.836 5.38217 13.7814C6.84084 13.6533 8.30793 13.6533 9.76661 13.7814C10.5544 13.8366 11.3374 13.9467 12.1099 14.1109C13.1808 14.3306 14.4714 14.77 14.9291 15.7311C15.2224 16.3479 15.2224 17.0639 14.9291 17.6807C14.4714 18.6418 13.1808 19.0812 12.1099 19.2917C11.3384 19.4633 10.5551 19.5766 9.76661 19.6304C8.57937 19.731 7.38659 19.7494 6.19681 19.6853C5.92221 19.6853 5.65677 19.6853 5.38217 19.6304C4.59663 19.5772 3.81632 19.464 3.04807 19.2917C1.96798 19.0812 0.686515 18.6418 0.219696 17.6807C0.0745983 17.3746 -0.000447948 17.04 1.61815e-05 16.7013Z" fill="#FF2929"/>
</svg>
