<svg width="20" height="16" viewBox="0 0 20 16" fill="none" xmlns="http://www.w3.org/2000/svg">
<path fill-rule="evenodd" clip-rule="evenodd" d="M4.52109 1.49087C4.51508 1.31371 4.54642 1.1372 4.61325 0.971816C4.68009 0.806437 4.78107 0.655565 4.91018 0.52816C5.03929 0.400755 5.1939 0.299415 5.36484 0.230159C5.53578 0.160902 5.71956 0.125141 5.90526 0.125H10.4583C11.21 0.125 11.8242 0.69725 11.8388 1.4165C11.8508 1.98 11.8865 3.06938 11.9947 4.5H14.0645C14.895 4.5 15.4899 5.17638 15.467 5.89563C15.4358 6.9115 15.522 9.77537 17.0684 14.125H18.25C18.4931 14.125 18.7263 14.2172 18.8982 14.3813C19.0701 14.5454 19.1667 14.7679 19.1667 15C19.1667 15.2321 19.0701 15.4546 18.8982 15.6187C18.7263 15.7828 18.4931 15.875 18.25 15.875H1.75001C1.5069 15.875 1.27374 15.7828 1.10183 15.6187C0.929921 15.4546 0.833344 15.2321 0.833344 15C0.833344 14.7679 0.929921 14.5454 1.10183 14.3813C1.27374 14.2172 1.5069 14.125 1.75001 14.125H2.90226C4.60268 8.539 4.57334 3.06937 4.52109 1.49087ZM15.137 14.125C13.8491 10.3083 13.6337 7.6045 13.6291 6.25H12.1487C12.3797 8.525 12.7793 11.3075 13.4714 14.125H15.137ZM10.0183 1.875C10.0779 3.83938 10.3493 8.87675 11.5913 14.125H4.80801C6.31593 8.89075 6.40301 3.877 6.36634 1.875H10.0174H10.0183Z" fill="white" fill-opacity="0.5"/>
</svg>
