<svg width="12" height="12" viewBox="0 0 12 12" fill="none" xmlns="http://www.w3.org/2000/svg">
<path d="M12 9L8.92308 12L6.76923 9.9L7.69231 9L8.92308 10.2L11.0769 8.1L12 9ZM1.23077 0C0.904349 0 0.591298 0.126428 0.360484 0.351472C0.12967 0.576515 0 0.88174 0 1.2V10.8C0 11.466 0.547692 12 1.23077 12H6.03692C5.81538 11.628 5.66154 11.22 5.58769 10.8H1.23077V1.2H5.53846V4.2H8.61539V6.648C8.81846 6.618 9.02769 6.6 9.23077 6.6C9.44 6.6 9.64308 6.618 9.84615 6.648V3.6L6.15385 0M2.46154 6V7.2H7.38462V6M2.46154 8.4V9.6H5.53846V8.4H2.46154Z" fill="#9AA7AE"/>
</svg>
