<svg width="10" height="12" viewBox="0 0 10 12" fill="none" xmlns="http://www.w3.org/2000/svg">
<path d="M5 7.8C5.58333 7.8 6.10938 7.6624 6.57812 7.3872C7.04688 7.1124 7.41667 6.75 7.6875 6.3C7.32292 6.01 6.91146 5.7874 6.45312 5.6322C5.99479 5.4774 5.51042 5.4 5 5.4C4.48958 5.4 4.00521 5.4774 3.54688 5.6322C3.08854 5.7874 2.67708 6.01 2.3125 6.3C2.58333 6.75 2.95313 7.1124 3.42188 7.3872C3.89063 7.6624 4.41667 7.8 5 7.8ZM5 4.8C5.34375 4.8 5.63812 4.6824 5.88313 4.4472C6.12771 4.2124 6.25 3.93 6.25 3.6C6.25 3.27 6.12771 2.9876 5.88313 2.7528C5.63812 2.5176 5.34375 2.4 5 2.4C4.65625 2.4 4.36208 2.5176 4.1175 2.7528C3.8725 2.9876 3.75 3.27 3.75 3.6C3.75 3.93 3.8725 4.2124 4.1175 4.4472C4.36208 4.6824 4.65625 4.8 5 4.8ZM5 10.41C6.27083 9.29 7.21354 8.2724 7.82812 7.3572C8.44271 6.4424 8.75 5.63 8.75 4.92C8.75 3.83 8.38792 2.9374 7.66375 2.2422C6.94 1.5474 6.05208 1.2 5 1.2C3.94792 1.2 3.05979 1.5474 2.33562 2.2422C1.61188 2.9374 1.25 3.83 1.25 4.92C1.25 5.63 1.55729 6.4424 2.17188 7.3572C2.78646 8.2724 3.72917 9.29 5 10.41ZM5 12C3.32292 10.63 2.07042 9.3574 1.2425 8.1822C0.414167 7.0074 0 5.92 0 4.92C0 3.42 0.502708 2.225 1.50813 1.335C2.51313 0.445 3.67708 0 5 0C6.32292 0 7.48688 0.445 8.49187 1.335C9.49729 2.225 10 3.42 10 4.92C10 5.92 9.58604 7.0074 8.75813 8.1822C7.92979 9.3574 6.67708 10.63 5 12Z" fill="#9AA7AE"/>
</svg>
