<svg width="15" height="15" viewBox="0 0 15 15" fill="none" xmlns="http://www.w3.org/2000/svg">
<path d="M14.2974 0H4.25589C4.13105 6.34766e-06 4.01133 0.0504448 3.92306 0.140221C3.83479 0.229997 3.7852 0.351758 3.78519 0.478721V3.82985H0.490229C0.365394 3.82985 0.245674 3.88029 0.157402 3.97007C0.0691306 4.05984 0.0195375 4.1816 0.0195312 4.30857V14.5213C0.0195375 14.6482 0.0691306 14.77 0.157402 14.8598C0.245674 14.9496 0.365394 15 0.490229 15H10.5318C10.6566 15 10.7763 14.9496 10.8646 14.8598C10.9529 14.77 11.0025 14.6482 11.0025 14.5213V11.1702H14.2974C14.4223 11.1701 14.542 11.1197 14.6303 11.0299C14.7185 10.9402 14.7681 10.8184 14.7681 10.6914V0.478721C14.7681 0.351758 14.7185 0.229997 14.6303 0.140221C14.542 0.0504448 14.4223 6.34766e-06 14.2974 0ZM10.0611 14.0426H0.960926V4.78729H10.0611V14.0426ZM13.8267 10.2127H11.0025V4.30857C11.0025 4.1816 10.9529 4.05984 10.8646 3.97007C10.7763 3.88029 10.6566 3.82985 10.5318 3.82985H4.72659V0.957442H13.8267V10.2127Z" fill="#979797"/>
</svg>
