<svg width="19" height="19" viewBox="0 0 19 19" fill="none" xmlns="http://www.w3.org/2000/svg">
<path d="M7.91667 17.4167C7.91667 17.8366 8.08348 18.2393 8.38041 18.5363C8.67735 18.8332 9.08008 19 9.5 19C9.91993 19 10.3227 18.8332 10.6196 18.5363C10.9165 18.2393 11.0833 17.8366 11.0833 17.4167V11.0833H17.4167C17.8366 11.0833 18.2393 10.9165 18.5363 10.6196C18.8332 10.3227 19 9.91992 19 9.5C19 9.08007 18.8332 8.67734 18.5363 8.38041C18.2393 8.08348 17.8366 7.91667 17.4167 7.91667H11.0833V1.58333C11.0833 1.16341 10.9165 0.760677 10.6196 0.463745C10.3227 0.166811 9.91993 0 9.5 0C9.08008 0 8.67735 0.166811 8.38041 0.463745C8.08348 0.760677 7.91667 1.16341 7.91667 1.58333V7.91667H1.58333C1.16341 7.91667 0.76068 8.08348 0.463748 8.38041C0.166815 8.67734 0 9.08007 0 9.5C0 9.91992 0.166815 10.3227 0.463748 10.6196C0.76068 10.9165 1.16341 11.0833 1.58333 11.0833H7.91667V17.4167Z" fill="#FF2929"/>
</svg>
