<svg width="16" height="18" viewBox="0 0 16 18" fill="none" xmlns="http://www.w3.org/2000/svg">
<path d="M0.827606 3.2855L0.828201 3.28489C1.04915 3.05854 1.2975 2.95455 1.6 2.95455H14.4C14.7025 2.95455 14.9513 3.05857 15.1729 3.28519C15.3941 3.51144 15.5 3.77085 15.5 4.09091V13.9091C15.5 14.2289 15.3942 14.4887 15.1731 14.7154C14.9516 14.9415 14.7027 15.0455 14.4 15.0455H1.6C1.29722 15.0455 1.04878 14.9415 0.827903 14.7156C0.605979 14.4887 0.5 14.2289 0.5 13.9091V4.09091C0.5 3.77112 0.605954 3.5118 0.827606 3.2855ZM2.60684 13.6002L1.97127 14.4091H3H13H14.0287L13.3932 13.6002C12.7491 12.7805 11.9662 12.1336 11.0476 11.6639C10.1189 11.189 9.10004 10.9545 8 10.9545C6.89996 10.9545 5.88113 11.189 4.95236 11.6639C4.03377 12.1336 3.2509 12.7805 2.60684 13.6002ZM2.1 17.5V16.8636H13.9V17.5H2.1ZM2.1 1.13636V0.5H13.9V1.13636H2.1ZM8 10.3182C8.80142 10.3182 9.4969 10.0252 10.0575 9.45183C10.6177 8.87892 10.9 8.17299 10.9 7.36364C10.9 6.55428 10.6177 5.84835 10.0575 5.27544C9.4969 4.7021 8.80141 4.40909 8 4.40909C7.19859 4.40909 6.5031 4.7021 5.9425 5.27544C5.38232 5.84835 5.1 6.55428 5.1 7.36364C5.1 8.17299 5.38232 8.87892 5.9425 9.45183C6.5031 10.0252 7.19859 10.3182 8 10.3182Z" stroke="white"/>
</svg>
