<svg width="16" height="20" viewBox="0 0 16 20" fill="none" xmlns="http://www.w3.org/2000/svg">
<path d="M8 20L1.86473 12.8936C1.77948 12.7869 1.69512 12.6795 1.61164 12.5714C0.56363 11.2156 -0.00253177 9.55945 8.51118e-06 7.85714C8.51118e-06 5.7733 0.842863 3.7748 2.34315 2.3013C3.84344 0.827804 5.87827 0 8 0C10.1217 0 12.1566 0.827804 13.6568 2.3013C15.1571 3.7748 16 5.7733 16 7.85714C16.0025 9.55867 15.4366 11.214 14.3891 12.5693L14.3884 12.5714C14.3884 12.5714 14.1702 12.8529 14.1374 12.8907L8 20ZM2.77237 11.7107C2.77382 11.7107 2.94255 11.9307 2.9811 11.9779L8 17.7914L13.0254 11.97C13.0574 11.9307 13.2276 11.7093 13.2284 11.7086C14.0845 10.6008 14.5471 9.24788 14.5454 7.85714C14.5454 6.15218 13.8558 4.51705 12.6283 3.31146C11.4008 2.10587 9.73596 1.42857 8 1.42857C6.26404 1.42857 4.59918 2.10587 3.37167 3.31146C2.14416 4.51705 1.45455 6.15218 1.45455 7.85714C1.45303 9.24874 1.91621 10.6024 2.7731 11.7107H2.77237Z" fill="white" fill-opacity="0.5"/>
<path d="M11.6364 11.4287H10.1818V5.71446H5.81819V11.4287H4.36365V5.71446C4.36403 5.3357 4.5174 4.97255 4.7901 4.70473C5.0628 4.4369 5.43254 4.28627 5.81819 4.28589H10.1818C10.5675 4.28627 10.9372 4.4369 11.2099 4.70473C11.4826 4.97255 11.636 5.3357 11.6364 5.71446V11.4287Z" fill="white" fill-opacity="0.5"/>
<path d="M7.27274 9.99997H8.72728V11.4285H7.27274V9.99997ZM7.27274 7.14282H8.72728V8.57139H7.27274V7.14282Z" fill="white" fill-opacity="0.5"/>
</svg>
