<svg width="25" height="24" viewBox="0 0 25 24" fill="none" xmlns="http://www.w3.org/2000/svg">
<circle cx="11.704" cy="7.27803" r="4.77803" stroke="#ADADAD" stroke-width="1.5" stroke-linecap="round" stroke-linejoin="round"/>
<path fill-rule="evenodd" clip-rule="evenodd" d="M4.12502 18.7016C4.12373 18.3657 4.19885 18.0339 4.3447 17.7313C4.80236 16.816 6.09298 16.3308 7.16392 16.1112C7.93628 15.9463 8.71931 15.8362 9.50717 15.7816C10.9658 15.6535 12.4329 15.6535 13.8916 15.7816C14.6794 15.8369 15.4624 15.947 16.2349 16.1112C17.3058 16.3308 18.5964 16.7702 19.0541 17.7313C19.3474 18.3481 19.3474 19.0642 19.0541 19.681C18.5964 20.6421 17.3058 21.0814 16.2349 21.2919C15.4634 21.4636 14.6801 21.5768 13.8916 21.6306C12.7044 21.7313 11.5116 21.7496 10.3218 21.6855C10.0472 21.6855 9.78177 21.6855 9.50717 21.6306C8.72163 21.5775 7.94132 21.4642 7.17307 21.2919C6.09298 21.0814 4.81152 20.6421 4.3447 19.681C4.1996 19.3749 4.12455 19.0403 4.12502 18.7016Z" stroke="#ADADAD" stroke-width="1.5" stroke-linecap="round" stroke-linejoin="round"/>
</svg>
