<svg width="27" height="20" viewBox="0 0 27 20" fill="none" xmlns="http://www.w3.org/2000/svg">
<path d="M24.875 0.625H2.375C1.87772 0.625 1.40081 0.822544 1.04917 1.17417C0.697544 1.52581 0.5 2.00272 0.5 2.5V17.5C0.5 17.9973 0.697544 18.4742 1.04917 18.8258C1.40081 19.1775 1.87772 19.375 2.375 19.375H24.875C25.3723 19.375 25.8492 19.1775 26.2008 18.8258C26.5525 18.4742 26.75 17.9973 26.75 17.5V2.5C26.75 2.00272 26.5525 1.52581 26.2008 1.17417C25.8492 0.822544 25.3723 0.625 24.875 0.625V0.625ZM24.875 2.5V5.3125H2.375V2.5H24.875ZM2.375 17.5V7.1875H24.875V17.5H2.375Z" fill="#13172E"/>
</svg>
