<svg width="15" height="18" viewBox="0 0 15 18" fill="none" xmlns="http://www.w3.org/2000/svg">
<path d="M9.47368 9H13.8158L9.47368 4.5V9ZM4.73684 3.27273H10.2632L15 8.18182V16.3636C15 16.7976 14.8336 17.2138 14.5375 17.5207C14.2414 17.8276 13.8398 18 13.4211 18H4.73684C4.31808 18 3.91647 17.8276 3.62036 17.5207C3.32425 17.2138 3.15789 16.7976 3.15789 16.3636V13.9091H7.10526V15.5455L10.2632 13.0909L7.10526 10.6364V12.2727H3.15789V4.90909C3.15789 4.4751 3.32425 4.05888 3.62036 3.75201C3.91647 3.44513 4.31808 3.27273 4.73684 3.27273ZM9.07895 1.63636H1.57895V12.2727H3.15789V13.9091H1.57895C1.16018 13.9091 0.758573 13.7367 0.462463 13.4298C0.166353 13.1229 0 12.7067 0 12.2727V1.63636C0 1.20237 0.166353 0.786158 0.462463 0.47928C0.758573 0.172402 1.16018 0 1.57895 0H7.5L9.07895 1.63636Z" fill="#FF2929"/>
</svg>
