<svg width="375" height="812" viewBox="0 0 375 812" fill="none" xmlns="http://www.w3.org/2000/svg">
<g clip-path="url(#clip0_1_3056)">
<rect x="-1" width="376" height="812" fill="white"/>
<path d="M373.645 628.286C374.748 627.898 375.867 627.558 377 627.268V846.712C356.361 847.532 336.164 846.637 315.729 843.56L315.729 843.56C297.357 840.795 278.671 837.126 263.655 826.625C248.642 816.127 238.353 797.117 243.223 779.757L242.26 779.487L243.223 779.757C245.886 770.259 252.268 762.922 260.391 756.995C268.52 751.062 278.327 746.589 287.729 742.803C297.14 739.013 307.19 734.856 315.844 729.264C324.507 723.666 331.848 716.585 335.769 706.908L335.769 706.908C338.308 700.639 339.07 693.981 339.51 687.348C339.611 685.827 339.695 684.31 339.779 682.799C340.063 677.672 340.344 672.609 341.267 667.664L341.267 667.664C344.541 650.122 356.913 634.173 373.645 628.286ZM373.645 628.286L373.313 627.342M373.645 628.286C373.645 628.286 373.645 628.286 373.645 628.286L373.313 627.342M373.313 627.342C374.524 626.916 375.755 626.547 377 626.236L373.313 627.342Z" stroke="#FF2929" stroke-width="2"/>
<path opacity="0.6" d="M32.2212 572.603C35.1639 565.452 31.7531 557.271 24.603 554.328C17.4528 551.385 9.27094 554.796 6.32823 561.946C3.38553 569.096 6.79635 577.278 13.9465 580.221C21.0967 583.164 29.2785 579.753 32.2212 572.603Z" stroke="#FF2929" stroke-width="4" stroke-miterlimit="10"/>
<path opacity="0.6" d="M322.473 140.468C326.241 138.908 328.03 134.588 326.469 130.821C324.909 127.053 320.589 125.264 316.822 126.825C313.054 128.385 311.265 132.705 312.826 136.472C314.386 140.24 318.705 142.029 322.473 140.468Z" stroke="#FF2929" stroke-width="4" stroke-miterlimit="10"/>
<path d="M391.749 656.115C392.818 655.78 393.902 655.487 395 655.236V844.752C374.97 845.459 355.369 844.684 335.535 842.024L335.535 842.024C317.696 839.632 299.546 836.457 284.966 827.374C270.371 818.282 260.497 801.908 265.177 787.046L265.177 787.046C267.744 778.891 273.907 772.563 281.797 767.433C289.688 762.302 299.21 758.433 308.34 755.158C317.475 751.881 327.23 748.285 335.631 743.45C344.034 738.613 351.186 732.478 355.012 724.064L355.012 724.064C357.493 718.608 358.234 712.818 358.662 707.075C358.761 705.753 358.843 704.437 358.924 703.128C359.2 698.697 359.471 694.339 360.364 690.08L360.364 690.08C363.524 674.998 375.484 661.214 391.749 656.115ZM391.749 656.115L391.45 655.161M391.749 656.115C391.749 656.115 391.749 656.115 391.749 656.115L391.45 655.161M391.45 655.161C374.84 660.368 362.619 674.438 359.386 689.875L395 654.211C393.801 654.479 392.616 654.796 391.45 655.161Z" stroke="#FF2929" stroke-width="2"/>
<path opacity="0.5" d="M641 604.984V422.06C611.815 419.85 566.602 424.64 528.677 401.115C483.975 373.387 515.811 312.439 455.461 288C398.951 288.002 393.718 288.001 379.765 288.001C379.765 347.696 384.332 424.364 370.658 433.58C352.519 445.806 362.984 474.424 352.519 491.18C342.054 507.937 301.816 520.5 297.404 555.413C292.992 590.327 338.603 604.984 379.765 577.4C384.997 558.665 398.687 520.217 427.206 512.818C455.461 505.487 481.972 504.091 523.482 560.294C559.422 608.955 623.247 646.869 641 604.984Z" fill="#FF2929"/>
<path opacity="0.5" d="M-529 142.5C-529 87.5 -409 45 -370.515 0H32C66.8 0 112.167 13.5 118.5 18.5C127.5 25 145 37 146.5 54.5C148.295 75.447 138.426 90.3397 110 103.5C83 116 64.5 121 54.5 138.5C44.5 156 50 174.5 44 193.5C38 212.5 30 212.5 19 224.5C8.68549 235.752 1.39093 258.5 12.5 282C21.4818 301 16.5 318.826 8 326.5C0.909607 332.901 -37 329.5 -64.5 309C-105.083 278.747 -152.515 221.656 -214.015 223C-305.5 225 -330 245 -358.5 291C-395.922 351.401 -353.985 450.326 -393 450.326C-404.333 449.993 -424.5 441.326 -432.5 434.826C-445.519 424.248 -459 408.826 -464.515 383C-475.127 333.302 -450.003 317 -452.015 271.5C-455.185 199.82 -529 216.246 -529 142.5Z" fill="#FF2929"/>
</g>
<defs>
<clipPath id="clip0_1_3056">
<rect width="376" height="812" fill="white" transform="translate(-1)"/>
</clipPath>
</defs>
</svg>
